<?xml version="1.0" standalone="no"?><!DOCTYPE svg PUBLIC "-//W3C//DTD SVG 1.1//EN" "http://www.w3.org/Graphics/SVG/1.1/DTD/svg11.dtd"><svg t="1705507487394" class="icon" viewBox="0 0 1024 1024" version="1.1" xmlns="http://www.w3.org/2000/svg" p-id="3506" xmlns:xlink="http://www.w3.org/1999/xlink" width="200" height="200"><path d="M880.3 160.21h-736a32 32 0 0 0-32 32v672a32 32 0 0 0 32 32h736a32 32 0 0 0 32-32v-672a32 32 0 0 0-32-32z m-24 680h-688v-408h688z m0-464h-688v-160h688z" p-id="3507" fill="#1afa29"></path><path d="M232.3 264.21m8 0l48 0q8 0 8 8l0 48q0 8-8 8l-48 0q-8 0-8-8l0-48q0-8 8-8Z" p-id="3508" fill="#1afa29"></path><path d="M360.3 264.21m8 0l48 0q8 0 8 8l0 48q0 8-8 8l-48 0q-8 0-8-8l0-48q0-8 8-8Z" p-id="3509" fill="#1afa29"></path><path d="M232.3 696.21m16 0l192 0q16 0 16 16l0 24q0 16-16 16l-192 0q-16 0-16-16l0-24q0-16 16-16Z" p-id="3510" fill="#1afa29"></path><path d="M232.3 592.21m16 0l192 0q16 0 16 16l0 24q0 16-16 16l-192 0q-16 0-16-16l0-24q0-16 16-16Z" p-id="3511" fill="#1afa29"></path><path d="M232.3 496.21m16 0l192 0q16 0 16 16l0 24q0 16-16 16l-192 0q-16 0-16-16l0-24q0-16 16-16Z" p-id="3512" fill="#1afa29"></path></svg>